<?xml version="1.0" encoding="utf-8"?>
<!DOCTYPE svg PUBLIC "-//W3C//DTD SVG 1.1//EN" "http://www.w3.org/Graphics/SVG/1.1/DTD/svg11.dtd">
<svg version="1.1" id="图形" xmlns="http://www.w3.org/2000/svg" xmlns:xlink="http://www.w3.org/1999/xlink" x="0px" y="0px" width="1024px" height="1024px" viewBox="0 0 1024 1024" enable-background="new 0 0 1024 1024" xml:space="preserve">
  <path fill="#ecf0f1" d="M818.176 622.56q14.336 0 28.672-6.656t25.6-17.408 17.92-24.576 6.656-28.16l0-674.816q0-14.336-6.656-28.672t-17.92-26.112-25.6-19.456-28.672-7.68l-556.032 0q-28.672 0-48.64 22.528t-19.968 52.224l0 679.936q0 14.336 6.144 28.16t15.872 25.088 23.04 18.432 27.648 7.168l54.272 0 0 69.632q0 23.552 20.992 40.448t44.544 16.896 43.52-16.896 19.968-40.448l0-69.632 191.488 0 0 69.632q0 23.552 19.456 40.448t46.08 16.896 46.08-16.896 19.456-40.448l0-69.632 46.08 0zM481.28 433.12q-13.312 0-22.528-11.264t-9.216-24.576 9.216-24.576 22.528-11.264l256 0q14.336 0 23.552 11.264t9.216 24.576-9.216 24.576-23.552 11.264l-256 0zM549.888-22.56q13.312 0 22.528 11.264t9.216 24.576-9.216 24.576-22.528 11.264l-200.704 0q-13.312 0-22.528-11.264t-9.216-24.576 9.216-24.576 22.528-11.264l200.704 0zM741.376 168.928q14.336 0 23.552 13.312t9.216 27.648q0 13.312-9.216 22.528t-23.552 9.216l-392.192 0q-13.312 0-22.528-9.216t-9.216-22.528q0-14.336 9.216-27.648t22.528-13.312l392.192 0z" transform="translate(0, 812) scale(1, -1)"/>
</svg>
