<?xml version="1.0" encoding="utf-8"?>
<!DOCTYPE svg PUBLIC "-//W3C//DTD SVG 1.1//EN" "http://www.w3.org/Graphics/SVG/1.1/DTD/svg11.dtd">
<svg version="1.1" id="图形" xmlns="http://www.w3.org/2000/svg" xmlns:xlink="http://www.w3.org/1999/xlink" x="0px" y="0px" width="1024px" height="1024px" viewBox="0 0 1024 1024" enable-background="new 0 0 1024 1024" xml:space="preserve">
  <path fill="#56abe4" d="M929.792-16.416q28.672-32.768 31.232-57.344t-18.944-48.128q-24.576-27.648-54.272-26.112t-57.344 24.064l-172.032 165.888q-46.08-29.696-98.816-46.08t-111.104-16.384q-79.872 0-149.504 30.208t-121.856 82.432-82.432 121.856-30.208 149.504 30.208 149.504 82.432 121.856 121.856 82.432 149.504 30.208 149.504-30.208 121.856-82.432 82.432-121.856 30.208-149.504q0-60.416-17.408-114.688t-49.152-100.352l33.792-33.792q24.576-24.576 51.712-51.2t49.664-50.176 28.672-29.696zM452.608 107.488q53.248 0 100.352 19.968t81.92 54.784 54.784 81.92 19.968 100.352-19.968 100.352-54.784 81.92-81.92 54.784-100.352 19.968-100.352-19.968-81.92-54.784-54.784-81.92-19.968-100.352 19.968-100.352 54.784-81.92 81.92-54.784 100.352-19.968z" transform="translate(0, 812) scale(1, -1)"/>
</svg>
