<?xml version="1.0" encoding="utf-8"?>
<!DOCTYPE svg PUBLIC "-//W3C//DTD SVG 1.1//EN" "http://www.w3.org/Graphics/SVG/1.1/DTD/svg11.dtd">
<svg version="1.1" id="图形" xmlns="http://www.w3.org/2000/svg" xmlns:xlink="http://www.w3.org/1999/xlink" x="0px" y="0px" width="1024px" height="1024px" viewBox="0 0 1024 1024" enable-background="new 0 0 1024 1024" xml:space="preserve">
  <path fill="#ecf0f1" d="M793.6 743.392q39.936 0 70.656-13.824t51.2-36.864 30.72-53.248 10.24-64l0-585.728q0-27.648-10.752-52.224t-29.696-43.008-43.52-29.184-52.224-10.752l-587.776 0q-76.8 0-121.344 40.448t-44.544 125.44l0 559.104q0 29.696 10.24 59.392t30.72 52.736 51.2 37.376 71.68 14.336l563.2 0zM190.464 515.04q0-11.264 4.096-17.408t11.776-8.192 17.92-2.048l21.504 0 531.456 0 21.504 0q10.24 0 17.92 2.048t11.776 8.192 4.096 17.408l0 50.176q0 22.528-15.872 38.4t-39.424 15.872l-531.456 0q-23.552 0-39.424-8.704t-15.872-32.256l0-63.488zM804.864 298.976q11.264 0 19.456 7.68t8.192 18.944l0 12.288q0 11.264-8.192 18.944t-19.456 7.68l-142.336 0q-11.264 0-19.456-7.68t-8.192-18.944l0-12.288q0-11.264 8.192-18.944t19.456-7.68l142.336 0zM830.464 208.864q0 11.264-8.192 19.456t-19.456 8.192l-194.56 0q-11.264 0-19.456-8.192t-8.192-19.456l0-9.216q0-11.264 8.192-19.456t19.456-8.192l194.56 0q11.264 0 19.456 8.192t8.192 19.456l0 9.216zM449.536 304.096q0 22.528-15.872 38.4t-39.424 15.872l-146.432 0q-22.528 0-38.4-15.872t-15.872-38.4l0-269.312q0-22.528 15.872-38.4t38.4-15.872l146.432 0q23.552 0 39.424 15.872t15.872 38.4l0 269.312zM834.56 82.912q0 11.264-8.192 19.456t-19.456 8.192l-203.776 0q-11.264 0-19.456-8.192t-8.192-19.456l0-13.312q0-11.264 8.192-19.456t19.456-8.192l203.776 0q11.264 0 19.456 8.192t8.192 19.456l0 13.312z" transform="translate(0, 812) scale(1, -1)"/>
</svg>
