<?xml version="1.0" encoding="utf-8"?>
<!DOCTYPE svg PUBLIC "-//W3C//DTD SVG 1.1//EN" "http://www.w3.org/Graphics/SVG/1.1/DTD/svg11.dtd">
<svg version="1.1" id="图形" xmlns="http://www.w3.org/2000/svg" xmlns:xlink="http://www.w3.org/1999/xlink" x="0px" y="0px" width="1024px" height="1024px" viewBox="0 0 1024 1024" enable-background="new 0 0 1024 1024" xml:space="preserve">
  <path fill="#ecf0f1" d="M129.52988 111.314741q0-26.517928 18.358566-44.876494t44.876494-18.358566l189.705179 0 0-127.49004-252.940239 0q-26.517928 0-49.466135 9.689243t-40.286853 27.027888-27.537849 40.796813-10.199203 49.976096l0 636.430279q0 25.498008 10.199203 48.956175t27.537849 40.796813 40.286853 27.537849 49.466135 10.199203l763.920319 0q26.517928 0 49.466135-10.199203t40.286853-27.537849 27.537849-40.796813 10.199203-48.956175l0-251.920319-127.49004-1.01992 0 62.215139q0 26.517928-18.868526 44.876494t-45.386454 18.358566l-636.430279 0q-26.517928 0-44.876494-18.358566t-18.358566-44.876494l0-382.47012zM1000.541833 67.458167q13.258964-5.099602 17.848606-19.378486t2.039841-32.63745-9.689243-37.227092-16.828685-33.14741-21.418327-21.928287-21.928287-2.549801q-20.398406 9.179283-47.426295 27.537849t-58.135458 41.306773-64.76494 48.956175-65.2749 52.525896q-6.119522 13.258964-19.378486 16.318725-2.039841 1.01992-2.549801 2.039841t-1.52988 2.039841q-1.01992-1.01992-1.01992-1.52988t-1.01992-1.52988l-2.039841 0q-13.258964 0-22.438247-9.179283t-9.179283-21.418327q0-7.139442 4.079681-15.298805-7.139442-5.099602-17.848606-9.689243t-22.948207-6.119522-24.478088 0.50996-21.418327 8.159363q-23.458167 15.298805-43.856574 31.10757t-42.836653 29.067729q-6.119522 4.079681-13.258964 12.239044t-11.729084 18.358566-4.589641 20.908367 8.159363 21.928287q2.039841 2.039841 4.079681 6.119522 8.159363-5.099602 17.338645-5.099602 13.258964 0 22.438247 9.179283t9.179283 21.418327q0 8.159363-4.079681 14.788845t-9.179283 10.709163q20.398406 29.577689 41.816733 59.665339t40.796813 59.665339q6.119522-3.059761 14.278884-3.059761 12.239044 0 21.418327 8.669323t9.179283 21.928287q0 11.219124-6.119522 19.378486 39.776892 36.717131 86.693227-1.01992 17.338645-14.278884 35.187251-29.067729t33.14741-28.047809q33.657371-26.517928 13.258964-74.454183-10.199203-2.039841-17.338645-10.709163t-7.139442-19.888446q0-4.079681 2.039841-8.159363-6.119522-11.219124-12.749004-22.438247t-14.788845-22.438247q36.717131-19.378486 74.964143-38.756972t72.414343-36.717131 62.7251-31.61753 45.896414-21.418327z" transform="translate(0, 812) scale(1, -1)"/>
</svg>
